<?xml version="1.0" encoding="iso-8859-1"?>
<!-- Uploaded to: SVG Repo, www.svgrepo.com, Generator: SVG Repo Mixer Tools -->
<svg fill="#000000" height="800px" width="800px" version="1.1" id="Layer_1" xmlns="http://www.w3.org/2000/svg" xmlns:xlink="http://www.w3.org/1999/xlink" 
	 viewBox="0 0 512.002 512.002" xml:space="preserve">
<g>
	<g>
		<path d="M161.143,341.519c-2.394-3.942-7.526-5.196-11.468-2.804c-21.122,12.823-33.731,35.211-33.731,59.889
			c0,4.61,3.736,8.347,8.347,8.347c4.611,0,8.347-3.737,8.347-8.347c0-18.794,9.608-35.848,25.701-45.619
			C162.279,350.593,163.535,345.46,161.143,341.519z"/>
	</g>
</g>
<g>
	<g>
		<path d="M313.776,367.333c3.29-3.23,3.337-8.515,0.107-11.804c-3.229-3.29-8.515-3.336-11.803-0.106l-56.476,55.468
			l-56.477-55.468c-3.286-3.23-8.573-3.183-11.803,0.106c-3.23,3.289-3.183,8.574,0.107,11.804l59.826,58.758v69.218H124.293
			c-4.611,0-8.347,3.737-8.347,8.347c0,4.61,3.736,8.347,8.347,8.347h163.181c4.611,0,8.347-3.737,8.347-8.347
			c0-4.61-3.738-8.347-8.349-8.347h-33.523v-69.217L313.776,367.333z"/>
	</g>
</g>
<g>
	<g>
		<path d="M341.519,338.715c-3.94-2.392-9.075-1.137-11.468,2.804c-2.392,3.941-1.136,9.075,2.804,11.467
			c16.1,9.775,25.712,26.829,25.712,45.619v96.704h-43.27c-4.611,0-8.347,3.737-8.347,8.347c0,4.61,3.736,8.347,8.347,8.347h51.617
			c4.611,0,8.347-3.737,8.347-8.347V398.604C375.261,373.93,362.647,351.542,341.519,338.715z"/>
	</g>
</g>
<g>
	<g>
		<path d="M196.054,206.732c-4.611,0-8.347,3.737-8.347,8.347v13.351c0,4.609,3.737,8.346,8.347,8.346
			c4.611,0,8.347-3.737,8.347-8.347v-13.35C204.401,210.469,200.665,206.732,196.054,206.732z"/>
	</g>
</g>
<g>
	<g>
		<path d="M320.132,183.022c-6.674-6.674-15.548-10.349-24.987-10.349c-9.438,0-18.312,3.675-24.986,10.349
			c-3.261,3.26-3.261,8.545-0.001,11.805c3.258,3.259,8.543,3.26,11.803,0c3.521-3.521,8.204-5.46,13.183-5.46
			c4.98,0,9.661,1.939,13.182,5.46c1.63,1.63,3.766,2.445,5.903,2.445c2.136,0,4.273-0.815,5.902-2.445
			C323.392,191.567,323.392,186.282,320.132,183.022z"/>
	</g>
</g>
<g>
	<g>
		<path d="M295.144,206.732c-4.611,0-8.347,3.737-8.347,8.347v13.351c0,4.61,3.736,8.347,8.347,8.347s8.347-3.737,8.347-8.347
			v-13.351C303.491,210.468,299.754,206.732,295.144,206.732z"/>
	</g>
</g>
<g>
	<g>
		<path d="M275.744,285.423c-3.26-3.259-8.544-3.26-11.805,0c-10.112,10.112-26.567,10.112-36.679,0
			c-3.261-3.26-8.545-3.26-11.805,0c-3.26,3.26-3.26,8.545,0,11.805c8.31,8.31,19.228,12.466,30.144,12.466
			c10.917,0,21.834-4.156,30.145-12.466C279.004,293.968,279.004,288.683,275.744,285.423z"/>
	</g>
</g>
<g>
	<g>
		<path d="M254.325,243.62h-0.38v-17.251c0-4.61-3.736-8.347-8.347-8.347c-4.611,0-8.347,3.737-8.347,8.347v17.251h-0.381
			c-4.611,0-8.347,3.737-8.347,8.347c0,4.61,3.737,8.347,8.347,8.347h17.454c4.611,0,8.347-3.737,8.347-8.347
			C262.672,247.357,258.935,243.62,254.325,243.62z"/>
	</g>
</g>
<g>
	<g>
		<path d="M427.69,247.554c-4.274-0.733-8.402,1.928-9.492,6.127c-1.238,4.761-5.536,8.087-10.452,8.087
			c-2.691,0-5.274-1.004-7.274-2.829c-1.987-1.812-3.219-4.294-3.467-6.982l-8.269-90.26c-3.141-34.303-18.314-65.991-42.892-89.874
			c5.238-13.231,10.475-26.463,15.709-39.692c1.694-4.286-0.404-9.135-4.69-10.831c-71.748-28.399-150.779-28.4-222.535,0
			c-4.287,1.696-6.386,6.546-4.69,10.833c1.696,4.287,6.551,6.386,10.832,4.69c65.206-25.806,136.762-26.794,202.443-2.959
			c-6.414,16.212-12.831,32.422-19.251,48.638l-6.197,15.656c-28.283-9.933-58.74-13.946-88.61-11.625
			c-4.596,0.357-8.033,4.373-7.675,8.969c0.357,4.595,4.367,8.033,8.969,7.675c30.125-2.342,60.898,2.3,88.993,13.423
			c0.988,0.391,2.03,0.586,3.073,0.586c1.13,0,2.258-0.229,3.315-0.687c2.032-0.879,3.632-2.53,4.446-4.589l9.138-23.085
			c18.831,20.431,30.435,46.431,32.996,74.395l8.27,90.268c0.633,6.847,3.774,13.164,8.84,17.785
			c5.082,4.635,11.661,7.189,18.525,7.189c1.555,0,3.086-0.13,4.58-0.383c-4.161,11.145-11.256,23.741-23.189,31.404
			c-11.444,7.35-25.962,9.155-43.259,5.453c18.593-19.295,28.223-46.127,25.603-73.237l-7.924-82.002
			c-0.257-2.67-1.784-5.054-4.1-6.406c-2.318-1.352-5.144-1.509-7.595-0.421c-37.32,16.566-65.153-17.784-66.305-19.236
			c-1.637-2.087-4.126-3.262-6.822-3.191c-2.651,0.081-5.107,1.417-6.614,3.6c-0.441,0.638-45.165,63.75-139.539,58.079
			c-4.527-0.265-8.377,3.059-8.809,7.529l-4.061,42.047c-2.621,27.114,7.013,53.947,25.61,73.24
			c-17.297,3.701-31.812,1.895-43.255-5.455c-11.936-7.665-19.031-20.265-23.193-31.411c1.509,0.257,3.044,0.388,4.583,0.388
			c14.299,0,26.063-10.74,27.366-24.981l8.269-90.26c0.421-4.591-2.96-8.653-7.55-9.074c-4.609-0.417-8.654,2.959-9.074,7.55
			l-8.269,90.261c-0.512,5.591-5.128,9.808-10.741,9.808c-2.417,0-4.702-0.78-6.608-2.258c-1.884-1.46-3.249-3.527-3.841-5.818
			c-1.087-4.203-5.217-6.874-9.49-6.139c-4.279,0.732-7.282,4.622-6.907,8.947c0.159,1.885,4.353,46.353,36.339,66.975
			c10.411,6.712,22.39,10.07,35.829,10.07c9.929,0,20.661-1.846,32.139-5.515l42.211,30.674c12.7,9.227,27.579,13.841,42.464,13.841
			c14.881,0,29.77-4.614,42.473-13.841l42.212-30.675c11.479,3.669,22.209,5.515,32.14,5.515c13.437-0.001,25.42-3.359,35.829-10.07
			c31.986-20.623,36.18-65.09,36.341-66.973C434.966,252.177,431.966,248.29,427.69,247.554z M323.945,311.998h-0.001
			l-45.684,33.198c-19.538,14.19-45.786,14.191-65.312,0.001l-45.689-33.2c-21.655-15.726-33.505-42.047-30.931-68.691l3.303-34.184
			c1.612,0.037,3.204,0.055,4.789,0.055c47.42-0.002,82.041-16.144,103.315-30.356c15.133-10.108,25.638-20.512,31.737-27.384
			c4.092,3.859,9.853,8.605,16.991,12.742c16.696,9.675,34.3,12.279,51.504,7.724l6.9,71.403
			C357.441,269.948,345.593,296.269,323.945,311.998z"/>
	</g>
</g>
<g>
	<g>
		<path d="M331.299,429.823h-43.405c-4.611,0-8.347,3.737-8.347,8.347s3.736,8.347,8.347,8.347h43.405
			c4.611,0,8.347-3.737,8.347-8.347S335.91,429.823,331.299,429.823z"/>
	</g>
</g>
<g>
	<g>
		<path d="M154.475,40.36c-33.446,0-60.656,27.209-60.656,60.656c0,33.446,27.209,60.656,60.656,60.656
			c33.446,0,60.656-27.209,60.656-60.656C215.131,67.569,187.922,40.36,154.475,40.36z M154.475,144.977
			c-24.24,0-43.961-19.721-43.961-43.961c0-24.24,19.721-43.961,43.961-43.961c24.24,0,43.961,19.721,43.961,43.961
			C198.437,125.256,178.715,144.977,154.475,144.977z"/>
	</g>
</g>
<g>
	<g>
		<path d="M158.866,370.439c-4.611,0-8.347,3.737-8.347,8.347v43.86c-5.487-3.455-11.972-5.463-18.92-5.463
			c-16.763,0-30.849,11.645-34.617,27.267H83.858c-3.767-15.622-17.854-27.267-34.617-27.267c-6.948,0-13.433,2.008-18.92,5.463
			v-43.86c0-4.61-3.736-8.347-8.347-8.347c-4.611,0-8.347,3.737-8.347,8.347v74.011c0,19.638,15.976,35.614,35.614,35.614
			c16.763,0,30.849-11.645,34.617-27.267h13.125c3.767,15.622,17.854,27.267,34.616,27.267c19.638,0,35.614-15.976,35.614-35.614
			v-74.011C167.213,374.176,163.477,370.439,158.866,370.439z M49.241,471.717c-10.433,0-18.92-8.487-18.92-18.92
			s8.487-18.92,18.92-18.92c10.433,0,18.92,8.487,18.92,18.92S59.673,471.717,49.241,471.717z M131.599,471.717
			c-10.433,0-18.92-8.487-18.92-18.92s8.487-18.92,18.92-18.92s18.92,8.487,18.92,18.92S142.032,471.717,131.599,471.717z"/>
	</g>
</g>
<g>
	<g>
		<path d="M490.029,150.726c-4.611,0-8.347,3.737-8.347,8.347v186.789H377.621c-4.611,0-8.347,3.737-8.347,8.347
			c0,4.61,3.736,8.347,8.347,8.347h112.408c4.611,0,8.347-3.737,8.347-8.347V159.074
			C498.376,154.464,494.64,150.726,490.029,150.726z"/>
	</g>
</g>
<g>
	<g>
		<path d="M490.029,75.807H376.507c-4.611,0-8.347,3.737-8.347,8.347c0,4.61,3.736,8.347,8.347,8.347h105.175v38.748
			c0,4.61,3.736,8.347,8.347,8.347c4.611,0,8.347-3.737,8.347-8.347V84.154C498.376,79.545,494.64,75.807,490.029,75.807z"/>
	</g>
</g>
<g>
	<g>
		<path d="M436.607,148.872h-25.041v-7.791h8.347c4.611,0,8.347-3.737,8.347-8.347c0-4.61-3.736-8.347-8.347-8.347h-8.347v-7.791
			h25.041c4.611,0,8.347-3.737,8.347-8.347s-3.736-8.347-8.347-8.347h-33.388c-4.611,0-8.347,3.737-8.347,8.347v48.97
			c0,4.61,3.736,8.347,8.347,8.347h33.388c4.611,0,8.347-3.737,8.347-8.347C444.954,152.61,441.218,148.872,436.607,148.872z"/>
	</g>
</g>
<g>
	<g>
		<path d="M443.285,178.922H429.93c-4.611,0-8.347,3.737-8.347,8.347v26.711v13.355c0,4.61,3.736,8.347,8.347,8.347
			c4.611,0,8.347-3.737,8.347-8.347v-5.008h5.008c11.966,0,21.702-9.736,21.702-21.702
			C464.988,188.658,455.251,178.922,443.285,178.922z M443.285,205.633h-5.008v-10.017h5.008c2.761,0,5.008,2.247,5.008,5.008
			S446.047,205.633,443.285,205.633z"/>
	</g>
</g>
<g>
	<g>
		<path d="M457.753,315.814h-35.614c-4.611,0-8.347,3.737-8.347,8.347c0,4.61,3.736,8.347,8.347,8.347h35.614
			c4.611,0,8.347-3.737,8.347-8.347C466.1,319.552,462.364,315.814,457.753,315.814z"/>
	</g>
</g>
<g>
	<g>
		<path d="M457.753,281.313h-12.242c-4.611,0-8.347,3.737-8.347,8.347s3.736,8.347,8.347,8.347h12.242
			c4.611,0,8.347-3.737,8.347-8.347S462.364,281.313,457.753,281.313z"/>
	</g>
</g>
<g>
	<g>
		<circle cx="154.468" cy="101.013" r="8.347"/>
	</g>
</g>
</svg>